HIERARCHY
ROOT SpineBase
{
  OFFSET 0.000000 0.000000 0.000000
  CHANNELS 6 Xposition Yposition Zposition Zrotation Xrotation Yrotation
  JOINT SpineMid
  {
    OFFSET 0.000000 32.402025 0.000000
    CHANNELS 3 Zrotation Xrotation Yrotation
    JOINT SpineShoulder
    {
      OFFSET -0.108322 23.976834 -0.768696
      CHANNELS 3 Zrotation Xrotation Yrotation
      JOINT Neck
      {
        OFFSET -0.095520 7.921753 -0.608237
        CHANNELS 3 Zrotation Xrotation Yrotation
        JOINT Head
        {
          OFFSET -5.421534 10.916167 5.530155
          CHANNELS 3 Zrotation Xrotation Yrotation
          End Site
          {
            OFFSET 0 0 0
          }
        }
      }
      JOINT ShoulderLeft
      {
        OFFSET -8.676089 -6.724606 15.349801
        CHANNELS 3 Zrotation Xrotation Yrotation
        JOINT ElbowLeft
        {
          OFFSET -1.724323 -23.114692 -3.949732
          CHANNELS 3 Zrotation Xrotation Yrotation
          JOINT WristLeft
          {
            OFFSET -2.382667 -30.181068 2.270488
            CHANNELS 3 Zrotation Xrotation Yrotation
            JOINT HandLeft
            {
              OFFSET -0.388775 -4.159549 -2.515861
              CHANNELS 3 Zrotation Xrotation Yrotation
              JOINT HandTipLeft
              {
                OFFSET -0.305096 -5.697455 -1.013447
                CHANNELS 3 Zrotation Xrotation Yrotation
                End Site
                {
                  OFFSET 0 0 0
                }
              }
              JOINT ThumbLeft
              {
                OFFSET -3.396298 0.237718 -1.537518
                CHANNELS 3 Zrotation Xrotation Yrotation
                End Site
                {
                  OFFSET 0 0 0
                }
              }
            }
          }
        }
      }
      JOINT ShoulderRight
      {
        OFFSET 7.558614 -3.117008 -14.915557
        CHANNELS 3 Zrotation Xrotation Yrotation
        JOINT ElbowRight
        {
          OFFSET 6.312496 -24.600899 -8.442438
          CHANNELS 3 Zrotation Xrotation Yrotation
          JOINT WristRight
          {
            OFFSET -4.137639 -24.876928 -4.373484
            CHANNELS 3 Zrotation Xrotation Yrotation
            JOINT HandRight
            {
              OFFSET -2.310732 -7.316878 1.364151
              CHANNELS 3 Zrotation Xrotation Yrotation
              JOINT HandTipRight
              {
                OFFSET -0.846593 -6.403156 -1.940761
                CHANNELS 3 Zrotation Xrotation Yrotation
                End Site
                {
                  OFFSET 0 0 0
                }
              }
              JOINT ThumbRight
              {
                OFFSET -5.025825 -0.884812 -8.109996
                CHANNELS 3 Zrotation Xrotation Yrotation
                End Site
                {
                  OFFSET 0 0 0
                }
              }
            }
          }
        }
      }
    }
  }
  JOINT HipLeft
  {
    OFFSET -3.274719 0.075673 2.023189
    CHANNELS 3 Zrotation Xrotation Yrotation
    JOINT KneeLeft
    {
      OFFSET 0.711037 -35.124425 3.030717
      CHANNELS 3 Zrotation Xrotation Yrotation
      JOINT AnkleLeft
      {
        OFFSET 7.439506 -35.173669 2.405530
        CHANNELS 3 Zrotation Xrotation Yrotation
        JOINT FootLeft
        {
          OFFSET -9.926093 -3.357194 -8.670446
          CHANNELS 3 Zrotation Xrotation Yrotation
          End Site
          {
            OFFSET 0 0 0
          }
        }
      }
    }
  }
  JOINT HipRight
  {
    OFFSET 1.793701 2.227340 -9.702383
    CHANNELS 3 Zrotation Xrotation Yrotation
    JOINT KneeRight
    {
      OFFSET 11.377979 -33.570863 -7.499925
      CHANNELS 3 Zrotation Xrotation Yrotation
      JOINT AnkleRight
      {
        OFFSET 9.843275 -35.022832 0.001614
        CHANNELS 3 Zrotation Xrotation Yrotation
        JOINT FootRight
        {
          OFFSET -10.172356 -3.302812 -8.582474
          CHANNELS 3 Zrotation Xrotation Yrotation
          End Site
          {
            OFFSET 0 0 0
          }
        }
      }
    }
  }
}
MOTION
Frames: 16
Frame Time: 0.033333
62.928812 75.743665 317.061075 -2.320955 -1.392847 53.520688 -0.487940 -0.103457 -53.645375 0.024756 -0.339635 -0.136794 -2.197003 -11.112731 -4.816187 0.000000 0.000000 0.000000 3.699849 -18.388762 1.749056 6.244946 16.780563 -2.714132 20.182054 11.816199 -20.731430 -26.382256 -7.684445 12.338884 0.000000 0.000000 0.000000 0.000000 0.000000 0.000000 -0.198380 0.203115 0.649980 -0.292114 1.362541 0.246987 5.849914 6.947179 -2.366755 -11.817217 -21.805366 4.054052 0.000000 0.000000 0.000000 0.000000 0.000000 0.000000 6.013066 -1.259309 -53.205158 -3.891854 -4.058901 -0.802462 3.935604 5.134177 -16.363678 0.000000 0.000000 0.000000 0.853772 3.215796 -52.087673 3.023987 -2.335503 -1.697475 3.566395 4.702951 -16.430883 0.000000 0.000000 0.000000
63.454213 75.847042 317.166862 -2.807214 -1.811933 53.310621 -0.512734 -0.162170 -53.471485 0.061287 -0.361232 -0.160730 -2.133928 -11.121106 -4.901842 0.000000 0.000000 0.000000 0.635042 -17.555118 1.866569 10.514233 14.779864 -3.811180 21.134662 9.246009 -21.828131 -28.344044 -2.959484 13.679001 0.000000 0.000000 0.000000 0.000000 0.000000 0.000000 0.385260 0.284189 0.510928 -0.662180 1.547284 0.502926 6.115212 9.323064 -3.219729 -10.680242 -24.427904 4.405533 0.000000 0.000000 0.000000 0.000000 0.000000 0.000000 7.020516 -1.147944 -52.981189 -4.536734 -4.590358 -0.941314 4.330256 5.107078 -15.404214 0.000000 0.000000 0.000000 2.035118 3.378039 -51.702648 2.438178 -3.279860 -1.997020 3.823277 4.891715 -15.446099 0.000000 0.000000 0.000000
64.030715 75.862750 317.330877 -3.275173 -2.367058 53.831667 -0.433418 -0.212814 -54.032458 0.120634 -0.327907 -0.178190 -1.886895 -10.734274 -4.877716 0.000000 0.000000 0.000000 -4.242929 -14.232003 2.113623 16.359607 10.421246 -4.702085 21.067516 3.829855 -21.535068 -26.818722 4.580613 14.954976 0.000000 0.000000 0.000000 0.000000 0.000000 0.000000 0.694280 0.373425 0.430045 -0.748868 1.942976 0.639217 4.964347 9.148985 -3.286219 -6.148564 -24.620214 4.759351 0.000000 0.000000 0.000000 0.000000 0.000000 0.000000 7.981330 -0.906737 -53.520223 -5.170005 -5.146949 -1.104478 4.658153 4.885987 -13.110362 0.000000 0.000000 0.000000 3.638625 3.534130 -52.050717 1.645616 -4.417192 -2.332485 3.822853 4.853630 -13.135983 0.000000 0.000000 0.000000
64.848771 75.778009 317.229894 -3.612023 -2.722625 54.823407 -0.430078 -0.246998 -55.056362 0.124389 -0.346842 -0.196119 -1.164971 -10.055698 -4.857670 0.000000 0.000000 0.000000 -9.032915 -11.376713 2.668776 20.757214 7.094106 -5.258062 25.490940 0.665707 -23.840599 -29.771656 8.715335 16.755425 0.000000 0.000000 0.000000 0.000000 0.000000 0.000000 0.811082 0.457443 0.434560 -0.469199 2.390753 0.622552 5.119617 9.133379 -3.252233 -4.291602 -24.509270 4.692529 0.000000 0.000000 0.000000 0.000000 0.000000 0.000000 7.956339 -0.666866 -54.591654 -5.364922 -5.160734 -1.175799 5.018266 4.625891 -10.558934 0.000000 0.000000 0.000000 4.542192 3.643491 -52.914479 1.210792 -5.152735 -2.604887 3.736182 4.752154 -10.578161 0.000000 0.000000 0.000000
65.749003 75.636511 316.895528 -3.805608 -2.835495 56.041767 -0.427137 -0.301759 -56.291442 0.134738 -0.359242 -0.203806 -0.400856 -9.452090 -4.871297 0.000000 0.000000 0.000000 -12.569593 -8.956301 3.240114 22.848057 5.126330 -5.407894 30.496232 -2.026973 -25.541986 -28.715644 7.808352 18.094560 0.000000 0.000000 0.000000 0.000000 0.000000 0.000000 0.672999 0.245148 0.441794 -0.111916 3.094275 0.561057 5.294948 7.042563 -2.516920 -3.604714 -22.556777 4.039317 0.000000 0.000000 0.000000 0.000000 0.000000 0.000000 7.152569 -0.503936 -55.916281 -5.234605 -4.709473 -1.153705 5.361483 4.340944 -8.159825 0.000000 0.000000 0.000000 4.747860 3.648095 -54.066997 1.152007 -5.470943 -2.766780 3.546502 4.613676 -8.172984 0.000000 0.000000 0.000000
66.635188 75.470752 316.364810 -3.818606 -2.692981 57.329340 -0.439558 -0.331471 -57.575287 0.149622 -0.355138 -0.201062 -0.240636 -9.469382 -4.907652 0.000000 0.000000 0.000000 -14.562538 -7.433410 3.581222 22.899021 4.959878 -5.425577 34.474586 -1.237264 -26.555574 -24.884927 5.450736 17.996654 0.000000 0.000000 0.000000 0.000000 0.000000 0.000000 0.326456 -0.191860 0.466712 0.491507 3.856590 0.399493 4.452017 6.185742 -2.285912 -1.610082 -21.423540 3.878116 0.000000 0.000000 0.000000 0.000000 0.000000 0.000000 5.731880 -0.389347 -57.321545 -4.878085 -3.977574 -1.073984 5.671848 4.156583 -6.220536 0.000000 0.000000 0.000000 4.282733 3.574368 -55.362670 1.293060 -5.422405 -2.821310 3.399273 4.525582 -6.229819 0.000000 0.000000 0.000000
67.495350 75.310410 315.746300 -3.757850 -2.435018 58.268971 -0.481978 -0.360925 -58.503555 0.165024 -0.353269 -0.194922 -0.575217 -9.747601 -4.848083 0.000000 0.000000 0.000000 -14.953483 -6.727951 3.629026 21.003343 4.886598 -5.196428 36.982005 2.012303 -27.342601 -18.476942 7.693866 15.978270 0.000000 0.000000 0.000000 0.000000 0.000000 0.000000 -0.125671 -0.736185 0.495624 1.337883 4.686674 0.161192 3.829720 4.766529 -1.797581 -0.765366 -19.285933 3.352135 0.000000 0.000000 0.000000 0.000000 0.000000 0.000000 4.076537 -0.264440 -58.382485 -4.270850 -3.080968 -0.941799 5.869993 4.066316 -5.057990 0.000000 0.000000 0.000000 3.429354 3.537036 -56.348853 1.540210 -5.196650 -2.835787 3.408019 4.589861 -5.039139 0.000000 0.000000 0.000000
68.290627 75.177351 315.044412 -3.516815 -2.027487 58.535103 -0.410015 -0.449753 -58.738932 0.230467 -0.309724 -0.168736 -2.118807 -10.896403 -4.800174 0.000000 0.000000 0.000000 -13.260551 -7.631901 3.148365 14.703711 5.626657 -4.574183 41.965550 9.426420 -29.985993 -15.242562 4.941441 15.213364 0.000000 0.000000 0.000000 0.000000 0.000000 0.000000 -0.886848 -1.515517 0.486897 2.250254 5.513257 -0.111926 2.786922 3.994422 -1.579031 1.480952 -19.051643 3.228671 0.000000 0.000000 0.000000 0.000000 0.000000 0.000000 2.321830 -0.271667 -58.743700 -3.983635 -2.138860 -0.838372 6.318930 4.233167 -5.221659 0.000000 0.000000 0.000000 2.108240 3.646883 -56.687288 1.927506 -4.795911 -2.812893 3.643813 4.879495 -5.177676 0.000000 0.000000 0.000000
68.928342 75.080139 314.406374 -3.321497 -1.610856 58.995659 -0.457919 -0.452314 -59.176106 0.222151 -0.303617 -0.157087 -3.205356 -11.868482 -4.800448 0.000000 0.000000 0.000000 -11.969607 -9.038478 2.799098 11.316479 7.951422 -4.290431 40.171264 14.485843 -27.757214 -13.725666 3.854575 13.200425 0.000000 0.000000 0.000000 0.000000 0.000000 0.000000 -1.309538 -2.145707 0.474526 3.142865 6.120952 -0.373229 1.778001 3.912346 -1.556130 2.436115 -19.213429 3.364294 0.000000 0.000000 0.000000 0.000000 0.000000 0.000000 0.865014 -0.310021 -59.279147 -3.669621 -1.461403 -0.765130 6.417303 4.265205 -4.495994 0.000000 0.000000 0.000000 0.822302 3.661499 -57.245372 2.351804 -4.329413 -2.754297 3.625896 4.974979 -4.436069 0.000000 0.000000 0.000000
69.372389 75.029430 313.994715 -3.288671 -1.367496 59.468191 -0.570515 -0.394422 -59.642960 0.186141 -0.309018 -0.161138 -4.017162 -12.636925 -4.788315 0.000000 0.000000 0.000000 -5.579984 -11.261889 2.063989 2.789777 14.730008 -2.616494 35.330769 17.260542 -21.398529 -23.955476 8.688298 9.502944 0.000000 0.000000 0.000000 0.000000 0.000000 0.000000 -1.342106 -2.379754 0.500294 3.896520 6.302889 -0.597402 0.955217 2.475189 -1.043098 3.345473 -17.910409 2.809875 0.000000 0.000000 0.000000 0.000000 0.000000 0.000000 0.176727 -0.354252 -59.790215 -3.504532 -1.259345 -0.756798 6.457226 4.381053 -4.124687 0.000000 0.000000 0.000000 0.068433 3.575525 -57.801433 2.537234 -4.086204 -2.732588 3.667080 5.160455 -4.041938 0.000000 0.000000 0.000000
69.623777 75.027458 313.857407 -3.468850 -1.384051 59.716732 -0.679621 -0.319669 -59.905326 0.150640 -0.312481 -0.178164 -4.278068 -12.984178 -4.772519 0.000000 0.000000 0.000000 -6.660815 -12.501844 2.216714 8.815667 18.270462 -4.144184 27.972588 11.984393 -17.513026 -44.106312 10.294188 10.738098 0.000000 0.000000 0.000000 0.000000 0.000000 0.000000 -0.951310 -2.297301 0.504221 3.924630 6.331329 -0.604500 0.634431 0.792422 -0.535764 4.448466 -17.383436 2.265906 0.000000 0.000000 0.000000 0.000000 0.000000 0.000000 0.357681 -0.412098 -60.039684 -3.511332 -1.521541 -0.809765 6.456110 4.535101 -3.983298 0.000000 0.000000 0.000000 -0.026626 3.503632 -58.060467 2.621080 -4.097556 -2.774097 3.705452 5.324868 -3.890151 0.000000 0.000000 0.000000
69.793966 75.041861 313.870649 -3.734400 -1.560501 59.974783 -0.693383 -0.268176 -60.183393 0.122790 -0.306240 -0.195827 -4.199946 -12.958384 -4.700488 0.000000 0.000000 0.000000 -10.917254 -13.703758 2.592307 20.323345 20.421670 -7.461594 19.534963 6.668087 -14.834164 -30.150008 14.869199 10.245187 0.000000 0.000000 0.000000 0.000000 0.000000 0.000000 -0.543149 -2.079933 0.525441 3.794870 6.166799 -0.558002 0.735555 1.592773 -0.778107 4.770050 -18.678931 2.637038 0.000000 0.000000 0.000000 0.000000 0.000000 0.000000 0.932618 -0.403196 -60.284875 -3.599007 -2.044718 -0.904983 6.486861 4.734708 -3.841336 0.000000 0.000000 0.000000 0.400321 3.439293 -58.273277 2.474821 -4.409140 -2.886687 3.793812 5.497690 -3.744338 0.000000 0.000000 0.000000
69.939019 75.073327 313.990641 -4.124086 -1.912998 60.008478 -0.617542 -0.230536 -60.247429 0.120321 -0.269017 -0.214621 -3.613611 -12.520217 -4.601612 0.000000 0.000000 0.000000 -19.467295 -14.989783 3.180876 39.291432 20.130271 -12.838930 4.982715 -2.477733 -10.316023 0.786542 21.971916 2.287189 0.000000 0.000000 0.000000 0.000000 0.000000 0.000000 -0.222403 -1.815676 0.590664 3.743059 6.047429 -0.544872 -0.284097 0.926500 -0.787471 7.055062 -19.128308 2.668713 0.000000 0.000000 0.000000 0.000000 0.000000 0.000000 1.820469 -0.450279 -60.298329 -3.905970 -2.655505 -1.033651 6.668225 4.983569 -3.791539 0.000000 0.000000 0.000000 1.279515 3.385237 -58.209125 2.127488 -4.935612 -3.062243 3.985086 5.680595 -3.705204 0.000000 0.000000 0.000000
70.220196 75.090913 313.892671 -4.486461 -2.087778 60.066697 -0.566217 -0.233249 -60.330486 0.113000 -0.262193 -0.231484 -2.427482 -11.761415 -4.541169 0.000000 0.000000 0.000000 -30.618831 -16.294533 3.709272 61.501352 16.368565 -17.849728 -3.383144 -16.217433 -9.612885 3.909607 33.215723 -2.139642 0.000000 0.000000 0.000000 0.000000 0.000000 0.000000 0.105544 -1.577828 0.651941 3.556220 5.776896 -0.496993 0.125829 2.352612 -1.201059 6.362764 -21.679850 3.544058 0.000000 0.000000 0.000000 0.000000 0.000000 0.000000 2.089101 -0.533762 -60.374007 -3.976942 -2.864072 -1.095747 6.836453 5.181330 -3.604159 0.000000 0.000000 0.000000 1.544528 3.266141 -58.243825 1.964908 -5.043365 -3.143474 4.207043 5.809223 -3.534307 0.000000 0.000000 0.000000
70.475900 75.111489 313.764223 -4.838413 -2.215246 59.996709 -0.478896 -0.270528 -60.282296 0.130830 -0.246376 -0.243255 -1.207263 -11.088515 -4.571180 0.000000 0.000000 0.000000 -47.859483 -17.132332 4.456494 91.227589 5.975003 -19.207693 -2.833561 -31.775273 -12.776627 -16.074785 42.782238 7.328232 0.000000 0.000000 0.000000 0.000000 0.000000 0.000000 0.319697 -1.453083 0.704183 3.312094 5.602074 -0.437478 -0.073884 2.656214 -1.411279 6.166784 -23.329256 4.107792 0.000000 0.000000 0.000000 0.000000 0.000000 0.000000 2.241361 -0.663293 -60.325638 -4.001169 -2.941128 -1.130663 6.970439 5.336387 -3.475558 0.000000 0.000000 0.000000 1.742110 3.117876 -58.159126 1.848625 -5.115204 -3.207392 4.384280 5.930523 -3.414514 0.000000 0.000000 0.000000
70.716797 75.146033 313.610111 -5.065424 -2.256970 59.814906 -0.392952 -0.295877 -60.111394 0.156159 -0.225475 -0.248234 -0.574554 -10.813022 -4.597509 0.000000 0.000000 0.000000 -55.958963 -17.100637 4.920685 105.879630 0.478315 -17.207196 -3.525678 -39.517614 -12.894491 -29.887357 45.930422 15.810010 0.000000 0.000000 0.000000 0.000000 0.000000 0.000000 0.348748 -1.439153 0.765485 3.241983 5.507805 -0.439552 -0.266429 2.829995 -1.552768 6.164019 -24.784640 4.557653 0.000000 0.000000 0.000000 0.000000 0.000000 0.000000 2.209712 -0.786292 -60.165453 -4.089319 -2.915555 -1.154413 7.156669 5.473206 -3.426630 0.000000 0.000000 0.000000 1.734632 3.020850 -57.978221 1.739076 -5.101558 -3.245258 4.593765 6.040083 -3.376740 0.000000 0.000000 0.000000
